<svg width="24" height="24" viewBox="0 0 24 24" fill="none" xmlns="http://www.w3.org/2000/svg">
<path d="M11.7317 3.65409C11.8423 3.43303 12.1577 3.43303 12.2683 3.65409L14.3295 7.77495C14.5188 8.15322 14.8802 8.4158 15.2984 8.47886L19.8545 9.1658C20.0989 9.20265 20.1964 9.50268 20.0203 9.67615L16.7381 12.9099C16.4368 13.2068 16.2988 13.6316 16.3681 14.0489L17.1227 18.5943C17.1631 18.8381 16.9079 19.0235 16.6885 18.9097L12.5988 16.7874C12.2234 16.5926 11.7766 16.5926 11.4012 16.7874L7.31146 18.9097C7.09207 19.0235 6.83685 18.8381 6.87733 18.5943L7.63194 14.0489C7.7012 13.6316 7.56316 13.2068 7.26187 12.9099L3.97966 9.67615C3.80358 9.50268 3.90107 9.20265 4.14548 9.1658L8.7016 8.47886C9.11983 8.4158 9.48124 8.15322 9.67046 7.77495L11.7317 3.65409Z" stroke="#4CB24E"/>
</svg>
